<?xml version="1.0" encoding="UTF-8"?>
<svg width="85px" height="34px" viewBox="0 0 85 34" version="1.1" xmlns="http://www.w3.org/2000/svg" xmlns:xlink="http://www.w3.org/1999/xlink">
    <!-- Generator: Sketch 56.3 (81716) - https://sketch.com -->
    <title>+50</title>
    <desc>Created with Sketch.</desc>
    <g id="Page-1" stroke="none" stroke-width="1" fill="none" fill-rule="evenodd">
        <path d="M23.46,14.674 L23.46,19.366 L14.214,19.366 L14.214,28.75 L9.246,28.75 L9.246,19.366 L0,19.366 L0,14.674 L9.246,14.674 L9.246,5.29 L14.214,5.29 L14.214,14.674 L23.46,14.674 Z M32.292,0 L52.532,0 L52.532,4.6 L37.122,4.6 L37.122,13.754 C37.7660032,12.895329 38.724327,12.1746696 39.997,11.592 C41.269673,11.0093304 42.7569915,10.718 44.459,10.718 C46.1610085,10.718 47.740326,11.05533 49.197,11.73 C50.6536739,12.40467 51.7653295,13.3093277 52.532,14.444 C54.065341,16.652011 54.832,19.1359862 54.832,21.896 C54.832,25.3920175 53.8353433,28.2209892 51.842,30.383 C49.8486567,32.5450108 47.0810177,33.626 43.539,33.626 C39.9969823,33.626 37.2140101,32.7980083 35.19,31.142 C33.1659899,29.4859917 31.9546687,27.293347 31.556,24.564 L36.662,24.564 C36.999335,26.0053405 37.7506608,27.1476624 38.916,27.991 C40.0813392,28.8343375 41.6453235,29.256 43.608,29.256 C45.5706765,29.256 47.0963279,28.5966733 48.185,27.278 C49.2736721,25.9593267 49.818,24.2036776 49.818,22.011 C49.818,19.8183224 49.2660055,18.1316726 48.162,16.951 C47.0579945,15.7703274 45.4326774,15.18 43.286,15.18 C41.7833258,15.18 40.5183385,15.5556629 39.491,16.307 C38.4636615,17.0583371 37.7200023,18.0779936 37.26,19.366 L32.292,19.366 L32.292,0 Z M66.47,1.38 C68.0646746,0.52132904 69.9966553,0.092 72.266,0.092 C74.5353447,0.092 76.4673254,0.51366245 78.062,1.357 C79.6566746,2.20033755 80.8909956,3.40399218 81.765,4.968 C82.6390044,6.53200782 83.2676648,8.27232375 83.651,10.189 C84.0343353,12.1056762 84.226,14.3059876 84.226,16.79 C84.226,19.2740124 84.0343353,21.4743237 83.651,23.391 C83.2676648,25.3076762 82.6390044,27.0556588 81.765,28.635 C80.8909956,30.2143412 79.6566746,31.4256624 78.062,32.269 C76.4673254,33.1123375 74.5353447,33.534 72.266,33.534 C69.9966553,33.534 68.0646746,33.1123375 66.47,32.269 C64.8753254,31.4256624 63.6410044,30.2143412 62.767,28.635 C61.8929956,27.0556588 61.2643352,25.3076762 60.881,23.391 C60.4976647,21.4743237 60.306,19.2740124 60.306,16.79 C60.306,14.3059876 60.4976647,12.1056762 60.881,10.189 C61.2643352,8.27232375 61.8929956,6.53200782 62.767,4.968 C63.6410044,3.40399218 64.8753254,2.20800414 66.47,1.38 Z M72.266,4.876 C70.7939926,4.876 69.5826714,5.19033019 68.632,5.819 C67.6813286,6.44766981 66.9913355,7.3753272 66.562,8.602 C65.8259963,10.7180106 65.458,13.4473166 65.458,16.79 C65.458,20.1633502 65.8259963,22.9079894 66.562,25.024 C67.420671,27.5080124 69.3219853,28.75 72.266,28.75 C75.2100147,28.75 77.111329,27.5080124 77.97,25.024 C78.7060037,22.9079894 79.074,20.1633502 79.074,16.79 C79.074,13.4473166 78.7060037,10.7180106 77.97,8.602 C77.111329,6.11798758 75.2100147,4.876 72.266,4.876 Z" id="+50" fill="#FFC108" fill-rule="nonzero"></path>
    </g>
</svg>