<?xml version="1.0" encoding="UTF-8"?>
<svg width="352px" height="123px" viewBox="0 0 352 123" version="1.1" xmlns="http://www.w3.org/2000/svg" xmlns:xlink="http://www.w3.org/1999/xlink">
    <!-- Generator: Sketch 56.3 (81716) - https://sketch.com -->
    <title>black-lake</title>
    <desc>Created with Sketch.</desc>
    <defs>
        <polygon id="path-1" points="0.73046875 0 351.28125 0 351.28125 122.201758 -8.59035065e-14 122.201758"></polygon>
    </defs>
    <g id="Page-1" stroke="none" stroke-width="1" fill="none" fill-rule="evenodd">
        <g id="black-lake">
            <mask id="mask-2" fill="white">
                <use xlink:href="#path-1"></use>
            </mask>
            <use id="Path-6" fill="#20283D" xlink:href="#path-1"></use>
            <path d="M1,46.070574 C1,46.070574 4.70171871,44.6919126 10.4600506,44.4951719 C16.2180741,44.2981359 25.4723709,41.3440724 31.8476559,41.7378491 C38.222941,42.1319211 54.6749213,44.1010999 61.4614056,46.070574 C68.2478899,48.0400481 97.6558857,47.4492354 102.180311,46.070574 C106.704737,44.6919126 132.411014,43.3135465 143.92737,45.873538 C155.444033,48.4338248 177.242838,50.2062629 180.944557,50.2062629 C182.955824,50.2062629 129.883974,51.3211265 80.7927061,50.2062629 C39.5207018,49.2689385 1,46.070574 1,46.070574" id="Fill-1" fill="#374365" mask="url(#mask-2)"></path>
            <path d="M136.479492,12.6879219 C151.264736,12.1819799 162.506437,9.10477107 173.840277,9.80481847 C185.174117,10.505391 214.422082,14.0061532 226.486943,17.5074406 C238.551804,21.0087279 290.832686,19.9583942 298.876109,17.5074406 C306.919533,15.0564869 352.619581,12.6060584 373.093101,17.1571543 C393.567171,21.7087753 432.320601,24.8597764 438.901434,24.8597764 C442.47702,24.8597764 348.127065,26.8417561 260.8537,24.8597764 C187.481248,23.193422 119,17.5074406 119,17.5074406 C119,17.5074406 121.694249,13.1938638 136.479492,12.6879219 Z" id="Fill-1" fill="#374365" mask="url(#mask-2)" transform="translate(279.000000, 17.721207) scale(1, -1) translate(-279.000000, -17.721207) "></path>
        </g>
    </g>
</svg>