<?xml version="1.0" encoding="UTF-8"?>
<svg width="327px" height="380px" viewBox="0 0 327 380" version="1.1" xmlns="http://www.w3.org/2000/svg" xmlns:xlink="http://www.w3.org/1999/xlink">
    <!-- Generator: Sketch 56.3 (81716) - https://sketch.com -->
    <title>hogwarts-crest</title>
    <desc>Created with Sketch.</desc>
    <defs>
        <linearGradient x1="50%" y1="0%" x2="50%" y2="100%" id="linearGradient-1">
            <stop stop-color="#E0E3C5" offset="0%"></stop>
            <stop stop-color="#B4D7B8" offset="100%"></stop>
        </linearGradient>
        <path d="M0,258.297872 C22.190781,227.234043 26.7964149,183.829787 26.7964149,183.829787 C41.8693982,97.4468085 4.18693982,40 4.18693982,40 L48.1498079,0 C48.1498079,0 72.0153649,18.5106383 98.6024328,18.5106383 L145.286812,18.5106383 C145.286812,18.5106383 146.961588,27.8723404 163.709347,37.4468085 C163.709347,37.4468085 177.316901,31.9148936 182.341229,18.7234043 L221.90781,18.7234043 C221.90781,18.7234043 249.960307,19.5744681 278.431498,0 L323.022407,40 C323.022407,40 286.386684,93.6170213 301.459667,185.957447 C301.459667,185.957447 304.809219,222.553191 327,256.595745 L299.366197,308.085106 C299.366197,308.085106 289.736236,301.702128 281.362356,308.085106 C281.362356,308.085106 236.5621,347.659574 189.668374,362.12766 C189.668374,362.12766 163.709347,374.468085 163.709347,380 L160.778489,376.595745 C154.498079,368.085106 121.002561,354.468085 121.002561,354.468085 C63.6414853,327.659574 47.31242,307.659574 47.31242,307.659574 C41.4507042,301.276596 27.6338028,307.659574 27.6338028,307.659574 L0,256.170213" id="path-2"></path>
    </defs>
    <g id="Page-1" stroke="none" stroke-width="1" fill="none" fill-rule="evenodd">
        <g id="hogwarts-crest">
            <mask id="mask-3" fill="white">
                <use xlink:href="#path-2"></use>
            </mask>
            <use id="Stroke-1" fill="url(#linearGradient-1)" xlink:href="#path-2"></use>
            <path d="M25.7713178,184.511111 L303.603485,184.511111" id="Line-2" stroke-opacity="0.401906687" stroke="#FFFFFF" stroke-width="2.53333333" stroke-linecap="square" mask="url(#mask-3)"></path>
            <path d="M25.7713178,191.688889 L303.603485,191.688889" id="Line-2" stroke-opacity="0.401906687" stroke="#FFFFFF" stroke-width="2.53333333" stroke-linecap="square" mask="url(#mask-3)"></path>
            <path d="M160.120155,28.9090278 L160.120155,383.516319" id="Line-3" stroke-opacity="0.401906687" stroke="#FFFFFF" stroke-width="2.53333333" stroke-linecap="square" mask="url(#mask-3)"></path>
            <path d="M167.302326,28.9090278 L167.302326,383.516319" id="Line-3" stroke-opacity="0.401906687" stroke="#FFFFFF" stroke-width="2.53333333" stroke-linecap="square" mask="url(#mask-3)"></path>
            <g id="winner" mask="url(#mask-3)">
                <g transform="translate(70.976744, 84.444444)">
                    <g id="Group" stroke-width="1" fill="none" fill-rule="evenodd" transform="translate(0.000000, 25.901846)">
                        <path d="M62.6837114,88.3399049 C47.9995912,88.3399049 33.6872543,83.098434 22.2984258,73.3341023 C8.24844657,61.2877517 0.189846768,43.7209871 0.189846768,25.1387374 L0.189846768,7.78582914 C0.189846768,5.78009648 0.966372786,3.89391079 2.37572136,2.47727908 C3.78045561,1.06596057 5.64596378,0.288905201 7.62880781,0.288905201 C7.63539971,0.288905201 7.64199161,0.288905201 7.64858351,0.288905201 L52.7424645,0.388527685 C55.5552289,0.394505034 57.8307534,2.6971127 57.8248207,5.53170442 C57.8182288,8.36164709 55.5387492,10.6523001 52.7319174,10.6523001 C52.7279623,10.6523001 52.7240072,10.6523001 52.720052,10.6523001 L10.3769716,10.5586549 L10.3763124,25.1380733 C10.3763124,40.7057466 17.1277381,55.4233082 28.8995561,65.516394 C40.5810651,75.5317743 55.9382184,79.864024 71.0251038,77.3980355 C71.5485008,77.3123602 72.0751937,77.2226999 72.6071602,77.1290548 C75.3810324,76.6448895 78.0177931,78.5071658 78.502957,81.2985878 C78.988121,84.0906739 77.1351374,86.7499301 74.3645612,87.2387444 C73.7904065,87.3396952 73.220207,87.4373252 72.6552811,87.5296421 C69.3336218,88.0729167 65.9981196,88.3399049 62.6837114,88.3399049 Z" id="Path" fill="#84C5B4" fill-rule="nonzero"></path>
                        <path d="M120.571155,88.3399049 C117.255429,88.3399049 113.922563,88.0729167 110.598926,87.5303062 C110.034,87.4379894 109.463801,87.3403593 108.889646,87.2394086 C106.118411,86.7505942 104.266086,84.0906739 104.75125,81.299252 C105.236414,78.5071658 107.879108,76.6442254 110.647047,77.129719 C111.178354,77.2240282 111.705707,77.3136885 112.229104,77.3986997 C127.319285,79.8626957 142.673142,75.5324385 154.354651,65.5170582 C166.126469,55.4246365 172.877895,40.7070749 172.877895,25.1387374 L172.877895,10.5593191 L130.534815,10.6529642 C130.530859,10.6529642 130.526904,10.6529642 130.522949,10.6529642 C127.715458,10.6529642 125.435979,8.36297539 125.430046,5.53236857 C125.423454,2.69777685 127.698978,0.395169183 130.512402,0.389191834 L175.608261,0.289569351 C175.614853,0.289569351 175.621444,0.289569351 175.628036,0.289569351 C177.609562,0.289569351 179.474411,1.06596057 180.879804,2.47794323 C182.289153,3.89523909 183.065679,5.78009648 183.065679,7.78649329 L183.065679,25.1394016 C183.065679,43.7216513 175.007738,61.2884158 160.9571,73.3347665 C149.568271,83.0977699 135.254616,88.3399049 120.571155,88.3399049 Z" id="Path" fill="#84C5B4" fill-rule="nonzero"></path>
                    </g>
                    <path d="M58.1372768,188.613919 L125.116931,188.613919 C97.3722756,153.165583 100.267439,102.077845 100.267439,102.077845 L91.6274333,102.077845 L82.9874278,102.077845 C82.9874278,102.077845 85.882591,153.166247 58.1372768,188.613919 Z" id="Path" fill="#FED130" fill-rule="nonzero"></path>
                    <path d="M41.1024845,11.485144 L41.1024845,56.2561521 C41.1024845,82.743778 53.5974341,107.654712 74.7633712,123.365842 L74.7633712,123.365842 C84.7922904,130.809634 98.4625761,130.809634 108.491495,123.365842 L108.491495,123.365842 C129.657432,107.655376 142.152382,82.743778 142.152382,56.2561521 L142.152382,11.485144 L41.1024845,11.485144 L41.1024845,11.485144 Z" id="Path" fill="#FED130" fill-rule="nonzero"></path>
                    <path d="M118.095237,11.485144 L118.095237,56.2561521 C118.095237,82.743778 105.600287,107.654712 84.4343502,123.365842 L84.4343502,123.365842 C82.8990963,124.505523 81.2781476,125.46854 79.5985311,126.258879 C88.8917941,130.633634 99.9971708,129.670617 108.490836,123.365842 L108.490836,123.365842 C129.656773,107.655376 142.151723,82.743778 142.151723,56.2561521 L142.151723,11.485144 L118.095237,11.485144 L118.095237,11.485144 Z" id="Path" fill="#F7BC14" fill-rule="nonzero"></path>
                    <path d="M145.771995,18.4786423 L37.4828713,18.4786423 C35.8507164,18.4786423 34.5277218,17.1456935 34.5277218,15.5012584 L34.5277218,3.16268177 C34.5277218,1.51824664 35.8507164,0.185297819 37.4828713,0.185297819 L145.771995,0.185297819 C147.40415,0.185297819 148.727145,1.51824664 148.727145,3.16268177 L148.727145,15.5012584 C148.727145,17.1456935 147.403491,18.4786423 145.771995,18.4786423 Z" id="Path" fill="#347C9D" fill-rule="nonzero"></path>
                    <path d="M145.771995,0.185961969 L124.67,0.185961969 L124.67,18.4786423 L145.771995,18.4786423 C147.40415,18.4786423 148.726486,17.1456935 148.726486,15.5012584 L148.726486,3.16268177 C148.726486,1.51891079 147.403491,0.185961969 145.771995,0.185961969 Z" id="Path" fill="#384263" fill-rule="nonzero"></path>
                    <path d="M149.085085,210.249266 L34.6233044,210.249266 C32.9641227,210.249266 31.8125175,208.584242 32.3873313,207.016184 L40.8875885,183.810787 C41.2330042,182.86703 42.1255477,182.240737 43.1235616,182.240737 L140.584828,182.240737 C141.582842,182.240737 142.475385,182.86703 142.820801,183.810787 L151.321058,207.016184 C151.895872,208.584242 150.744267,210.249266 149.085085,210.249266 Z" id="Path" fill="#347C9D" fill-rule="nonzero"></path>
                    <path d="M151.321717,207.016184 L142.82146,183.810787 C142.475385,182.86703 141.583501,182.240737 140.584828,182.240737 L117.337827,182.240737 L127.597463,210.249266 L149.085085,210.249266 C150.744267,210.249266 151.895872,208.584242 151.321717,207.016184 Z" id="Path" fill="#384263" fill-rule="nonzero"></path>
                </g>
            </g>
        </g>
    </g>
</svg>