<?xml version="1.0" encoding="UTF-8"?>
<svg width="264px" height="148px" viewBox="0 0 264 148" version="1.1" xmlns="http://www.w3.org/2000/svg" xmlns:xlink="http://www.w3.org/1999/xlink">
    <!-- Generator: Sketch 53.2 (72643) - https://sketchapp.com -->
    <title>Igloo</title>
    <desc>Created with Sketch.</desc>
    <defs>
        <linearGradient x1="50%" y1="20.3046425%" x2="50%" y2="98.8423943%" id="linearGradient-1">
            <stop stop-color="#FCFDFF" offset="0%"></stop>
            <stop stop-color="#C2EEFF" offset="100%"></stop>
        </linearGradient>
        <path d="M263.816897,146.931104 C263.816897,137.05486 263.816897,129.556475 263.816897,124.435949 C263.816897,55.7118721 204.759473,0 131.908448,0 C59.057424,0 2.28824682e-16,55.7118721 2.28824682e-16,124.435949 C2.28824682e-16,129.17867 1.52549788e-16,136.677055 0,146.931104 L263.816897,146.931104 Z" id="path-2"></path>
        <linearGradient x1="45.539166%" y1="33.1124467%" x2="49.9515475%" y2="86.4587427%" id="linearGradient-4">
            <stop stop-color="#FFFFFF" offset="0%"></stop>
            <stop stop-color="#A1E3FC" offset="100%"></stop>
        </linearGradient>
        <linearGradient x1="50%" y1="100%" x2="50%" y2="-82.4404221%" id="linearGradient-5">
            <stop stop-color="#E5F8FF" offset="0%"></stop>
            <stop stop-color="#C2EEFF" offset="100%"></stop>
        </linearGradient>
        <linearGradient x1="99.089206%" y1="50%" x2="0%" y2="50%" id="linearGradient-6">
            <stop stop-color="#2480E5" offset="0%"></stop>
            <stop stop-color="#24AFE5" offset="100%"></stop>
        </linearGradient>
    </defs>
    <g id="Splash-Page" stroke="none" stroke-width="1" fill="none" fill-rule="evenodd">
        <g id="Igloo">
            <g id="Texture-02">
                <mask id="mask-3" fill="white">
                    <use xlink:href="#path-2"></use>
                </mask>
                <use id="Mask" fill="url(#linearGradient-1)" xlink:href="#path-2"></use>
            </g>
            <path d="M230.460738,95.6032292 L245.626381,95.6032292 C246.882433,95.6032292 247.900665,96.6223488 247.900665,97.8794965 C247.900665,99.1366443 246.882433,100.155764 245.626381,100.155764 L202.41124,100.155764 C201.155188,100.155764 200.136956,99.1366443 200.136956,97.8794965 C200.136956,96.6223488 201.155188,95.6032292 202.41124,95.6032292 L225.91217,95.6032292 L225.91217,84.9806482 L162.23223,84.9806482 C160.976178,84.9806482 159.957946,83.9615285 159.957946,82.7043808 C159.957946,81.447233 160.976178,80.4281134 162.23223,80.4281134 L183.458877,80.4281134 L183.458877,69.0467766 C183.458877,67.7896289 184.477108,66.7705093 185.73316,66.7705093 C186.989212,66.7705093 188.007444,67.7896289 188.007444,69.0467766 L188.007444,80.4281134 L238.80353,80.4281134 C240.059582,80.4281134 241.077814,81.447233 241.077814,82.7043808 C241.077814,83.9615285 240.059582,84.9806482 238.80353,84.9806482 L230.460738,84.9806482 L230.460738,95.6032292 Z" id="Combined-Shape" fill-opacity="0.595986187" fill="#B0E8FB" fill-rule="nonzero"></path>
            <path d="M151.618906,50.077882 L151.618906,40.2140567 C151.618906,39.9480101 151.664509,39.6926238 151.748317,39.4553009 L105.37514,39.4553009 C104.119088,39.4553009 103.100856,38.4361813 103.100856,37.1790336 C103.100856,35.9218858 104.119088,34.9027662 105.37514,34.9027662 L122.811314,34.9027662 L122.811314,22.0039178 C122.811314,20.7467701 123.829546,19.7276505 125.085598,19.7276505 C126.34165,19.7276505 127.359881,20.7467701 127.359881,22.0039178 L127.359881,34.9027662 L181.94644,34.9027662 C183.202493,34.9027662 184.220724,35.9218858 184.220724,37.1790336 C184.220724,38.4361813 183.202493,39.4553009 181.94644,39.4553009 L156.038062,39.4553009 C156.121871,39.6926238 156.167473,39.9480101 156.167473,40.2140567 L156.167473,50.077882 L178.152215,50.077882 C179.408267,50.077882 180.426498,51.0970016 180.426498,52.3541493 C180.426498,53.6112971 179.408267,54.6304167 178.152215,54.6304167 L143.279866,54.6304167 C142.023814,54.6304167 141.005583,53.6112971 141.005583,52.3541493 C141.005583,51.0970016 142.023814,50.077882 143.279866,50.077882 L151.618906,50.077882 Z" id="Combined-Shape" fill-opacity="0.595986187" fill="#B0E8FB" fill-rule="nonzero"></path>
            <path d="M160.716041,115.33088 L160.716041,127.470972 L176.636026,127.470972 C177.892078,127.470972 178.910309,128.490092 178.910309,129.74724 C178.910309,131.004387 177.892078,132.023507 176.636026,132.023507 L143.279866,132.023507 C142.023814,132.023507 141.005583,131.004387 141.005583,129.74724 C141.005583,128.490092 142.023814,127.470972 143.279866,127.470972 L156.167473,127.470972 L156.167473,115.33088 L149.344623,115.33088 C148.088571,115.33088 147.070339,114.31176 147.070339,113.054612 C147.070339,111.797465 148.088571,110.778345 149.344623,110.778345 L196.346484,110.778345 C197.602536,110.778345 198.620767,111.797465 198.620767,113.054612 C198.620767,114.31176 197.602536,115.33088 196.346484,115.33088 L160.716041,115.33088 Z" id="Combined-Shape" fill-opacity="0.595986187" fill="#B0E8FB" fill-rule="nonzero"></path>
            <path d="M89.4551547,56.1479282 L89.4551547,66.7705093 L93.2456274,66.7705093 C94.5016795,66.7705093 95.519911,67.7896289 95.519911,69.0467766 C95.519911,70.3039244 94.5016795,71.323044 93.2456274,71.323044 L70.5027914,71.323044 C69.2467393,71.323044 68.2285078,70.3039244 68.2285078,69.0467766 C68.2285078,67.7896289 69.2467393,66.7705093 70.5027914,66.7705093 L84.9065875,66.7705093 L84.9065875,56.1479282 L61.405657,56.1479282 C60.1496049,56.1479282 59.1313734,55.1288086 59.1313734,53.8716609 C59.1313734,52.6145131 60.1496049,51.5953935 61.405657,51.5953935 L96.2780055,51.5953935 C97.5340576,51.5953935 98.5522891,52.6145131 98.5522891,53.8716609 C98.5522891,55.1288086 97.5340576,56.1479282 96.2780055,56.1479282 L89.4551547,56.1479282 Z" id="Combined-Shape" fill-opacity="0.595986187" fill="#B0E8FB" fill-rule="nonzero"></path>
            <path d="M56.0989953,81.945625 L94.0037219,81.945625 L94.0037219,81.945625 C114.937924,81.945625 131.908448,98.9161491 131.908448,119.850352 L131.908448,147.198623 L56.0989953,147.198623 L56.0989953,81.945625 Z" id="Mask" fill="url(#linearGradient-4)"></path>
            <path d="M56.0989953,81.945625 L56.0989953,81.945625 C77.0331978,81.945625 94.0037219,98.9161491 94.0037219,119.850352 L94.0037219,147.198623 L18.1942688,147.198623 L18.1942688,119.850352 C18.1942688,98.9161491 35.1647929,81.945625 56.0989953,81.945625 Z" id="Rectangle-11" fill="url(#linearGradient-5)"></path>
            <path d="M56.0989953,95.6032292 L56.0989953,95.6032292 C68.6595168,95.6032292 78.8418313,105.785544 78.8418313,118.346065 L78.8418313,147.198623 L33.3561594,147.198623 L33.3561594,118.346065 C33.3561594,105.785544 43.5384739,95.6032292 56.0989953,95.6032292 Z" id="Mask" fill="url(#linearGradient-6)"></path>
        </g>
    </g>
</svg>