<?xml version="1.0" encoding="UTF-8"?>
<svg width="98px" height="100px" viewBox="0 0 98 100" version="1.1" xmlns="http://www.w3.org/2000/svg" xmlns:xlink="http://www.w3.org/1999/xlink">
    <!-- Generator: Sketch 56.3 (81716) - https://sketch.com -->
    <title>trees</title>
    <desc>Created with Sketch.</desc>
    <g id="Page-1" stroke="none" stroke-width="1" fill="none" fill-rule="evenodd">
        <g id="trees" fill-rule="nonzero">
            <path d="M28.626627,71.8015153 C26.5634033,72.4412265 24.3654555,72.7869141 22.078502,72.7869141 C8.834251,72.7869141 -1.42490438,61.1931641 0.180577689,48.0402344 L4.10096813,15.9230469 C5.21059363,6.83300781 12.9250677,2.13162821e-14 22.078502,2.13162821e-14 C31.2319363,2.13162821e-14 38.9462151,6.83300781 40.0558406,15.9230469 L41.6449453,28.941539 C45.3946137,22.007842 52.7281124,17.2982422 61.1609801,17.2982422 C72.8370359,17.2982422 82.4053108,26.3269531 83.2716932,37.7869141 C91.8474741,40.8523437 97.9851633,49.0501953 97.9851633,58.6835937 C97.9851633,70.9361328 88.0572948,80.8689453 75.8104183,80.8689453 C70.1949402,80.8689453 65.0679004,78.7794922 61.1609801,75.3367187 C57.2540598,78.7794922 52.1270199,80.8689453 46.5115418,80.8689453 C39.1704275,80.8689453 32.6624498,77.29991 28.626627,71.8015153 Z" id="Combined-Shape" fill="#374365"></path>
            <polygon id="Path" fill="#2A334B" points="74.5563307 51.6767578 71.8306813 46.490625 64.0892669 50.5630859 64.0892669 42.0021484 58.2326932 42.0021484 58.2326932 61.19375 50.4910837 57.1212891 47.7654343 62.3074219 58.2326932 67.8136719 58.2326932 100 64.0892669 100 64.0892669 57.1830078"></polygon>
            <polygon id="Path" fill="#2A334B" points="32.7483984 47.7742188 25.0067888 51.8466797 25.0067888 36.9634766 35.4738526 31.4574219 32.7483984 26.2712891 25.0067888 30.34375 25.0067888 21.7826172 19.1502151 21.7826172 19.1502151 41.0951172 11.4088008 37.0228516 8.68315139 42.2087891 19.1502151 47.7150391 19.1502151 100 25.0067888 100 25.0067888 58.4666016 35.4738526 52.9603516"></polygon>
        </g>
    </g>
</svg>