<?xml version="1.0" encoding="UTF-8"?>
<svg width="45px" height="100px" viewBox="0 0 45 100" version="1.1" xmlns="http://www.w3.org/2000/svg" xmlns:xlink="http://www.w3.org/1999/xlink">
    <!-- Generator: Sketch 56.3 (81716) - https://sketch.com -->
    <title>Group 31</title>
    <desc>Created with Sketch.</desc>
    <g id="Page-1" stroke="none" stroke-width="1" fill="none" fill-rule="evenodd">
        <g id="Group-31" fill-rule="nonzero">
            <path d="M22.0637207,72.7869141 L22.0637207,72.7869141 C8.81946975,72.7869141 -1.43968563,61.1931641 0.165796444,48.0402344 L4.08618688,15.9230469 C5.19581238,6.83300781 12.9102865,2.13162821e-14 22.0637207,2.13162821e-14 L22.0637207,2.13162821e-14 C31.217155,2.13162821e-14 38.9314339,6.83300781 40.0410594,15.9230469 L43.9614498,48.0402344 C45.5671271,61.1931641 35.3079717,72.7869141 22.0637207,72.7869141 Z" id="Path" fill="#374365"></path>
            <path d="M22.0637207,72.7869141 L22.0637207,72.7869141 C22.0637207,58.0064453 22.0637207,11.5726563 22.0637207,2.13162821e-14 L22.0637207,2.13162821e-14 C31.217155,2.13162821e-14 38.9314339,6.83300781 40.0410594,15.9230469 L43.9614498,48.0402344 C45.5671271,61.1931641 35.3079717,72.7869141 22.0637207,72.7869141 Z" id="Path" fill="#374365"></path>
            <polygon id="Path" fill="#2A334B" points="32.7336172 47.7742187 24.9920076 51.8466797 24.9920076 36.9634766 35.4590713 31.4574219 32.7336172 26.2712891 24.9920076 30.34375 24.9920076 21.7826172 19.1354339 21.7826172 19.1354339 41.0951172 11.3940196 37.0228516 8.66837015 42.2087891 19.1354339 47.7150391 19.1354339 100 24.9920076 100 24.9920076 58.4666016 35.4590713 52.9603516"></polygon>
        </g>
    </g>
</svg>