<?xml version="1.0" encoding="UTF-8"?>
<svg width="103px" height="170px" viewBox="0 0 103 170" version="1.1" xmlns="http://www.w3.org/2000/svg" xmlns:xlink="http://www.w3.org/1999/xlink">
    <!-- Generator: Sketch 53.2 (72643) - https://sketchapp.com -->
    <title>tree-2</title>
    <desc>Created with Sketch.</desc>
    <defs>
        <ellipse id="path-1" cx="51.478054" cy="51.3517342" rx="51.478054" ry="51.3517342"></ellipse>
    </defs>
    <g id="Splash-Page" stroke="none" stroke-width="1" fill="none" fill-rule="evenodd">
        <g id="tree-2">
            <g id="Path-8">
                <mask id="mask-2" fill="white">
                    <use xlink:href="#path-1"></use>
                </mask>
                <use id="Mask" fill="#99E87D" xlink:href="#path-1"></use>
                <path d="M-19.4862393,32.1030434 C-15.4699362,46.1852723 -8.4115014,53.2263867 1.68906507,53.2263867 C16.8399148,53.2263867 11.099201,28.1861693 20.4811257,28.1861693 C29.8630504,28.1861693 26.2126953,48.2758843 39.279723,48.2758843 C52.3467507,48.2758843 44.4498402,19.1665951 57.6869496,19.1665951 C70.9240589,19.1665951 64.6456676,42.6605426 86.3667436,42.6605426 C100.847461,42.6605426 107.11305,33.1106914 105.163512,14.010989 L57.6869496,-17.6834006 L-19.4862393,32.1030434 Z" fill="#FFFFFF" mask="url(#mask-2)"></path>
            </g>
            <path d="M42.8947882,72.593125 L42.8947882,72.593125 C43.816792,72.5919924 44.565142,73.338506 44.5662746,74.2605098 C44.5662763,74.261877 44.5662763,74.2632442 44.5662746,74.2646114 L44.5426691,93.480491 C44.5415329,94.4054273 43.7920073,95.1549529 42.8670711,95.1560891 L42.8670711,95.1560891 C41.9450672,95.1572217 41.1967173,94.4107081 41.1955846,93.4887043 C41.195583,93.4873371 41.195583,93.4859699 41.1955846,93.4846027 L41.2191901,74.2687231 C41.2203263,73.3437869 41.969852,72.5942612 42.8947882,72.593125 Z" id="Rectangle-64" fill="#7CD05E" transform="translate(42.880930, 83.874607) scale(-1, 1) rotate(45.000000) translate(-42.880930, -83.874607) "></path>
            <path d="M57.8766064,50.1755426 L57.8766064,50.1755426 C58.7986102,50.17441 59.5469602,50.9209236 59.5480928,51.8429274 C59.5480945,51.8442946 59.5480945,51.8456618 59.5480928,51.847029 L59.5244873,71.0629086 C59.5233511,71.9878448 58.7738255,72.7373705 57.8488892,72.7385067 L57.8488892,72.7385067 C56.9268854,72.7396393 56.1785355,71.9931257 56.1774028,71.0711219 C56.1774011,71.0697547 56.1774011,71.0683875 56.1774028,71.0670203 L56.2010083,51.8511407 C56.2021445,50.9262045 56.9516702,50.1766788 57.8766064,50.1755426 Z" id="Rectangle-64" fill="#7CD05E" transform="translate(57.862748, 61.457025) rotate(45.000000) translate(-57.862748, -61.457025) "></path>
            <ellipse id="Oval-4" fill="#99E87D" cx="27.2450728" cy="120.584811" rx="16.0087092" ry="15.9694261"></ellipse>
            <path d="M39.5677163,116.868555 L39.5677163,116.868555 C40.4897201,116.867423 41.2380701,117.613936 41.2392027,118.53594 C41.2392044,118.537307 41.2392044,118.538674 41.2392027,118.540042 L41.2040313,147.171092 C41.2028951,148.096029 40.4533695,148.845554 39.5284332,148.84669 L39.5284332,148.84669 C38.6064294,148.847823 37.8580794,148.101309 37.8569468,147.179306 C37.8569451,147.177938 37.8569451,147.176571 37.8569468,147.175204 L37.8921182,118.544153 C37.8932545,117.619217 38.6427801,116.869691 39.5677163,116.868555 Z" id="Rectangle-64" fill="#7CD05E" transform="translate(39.548075, 132.857623) scale(-1, 1) rotate(45.000000) translate(-39.548075, -132.857623) "></path>
            <path d="M50.5636364,48.6008462 L50.5636364,48.6008462 C51.5979151,48.6008462 52.4363636,49.4392947 52.4363636,50.4735734 L52.4363636,169.83017 L48.6909091,169.83017 L48.6909091,50.4735734 C48.6909091,49.4392947 49.5293577,48.6008462 50.5636364,48.6008462 Z" id="Rectangle-63" fill="#7CD05E"></path>
        </g>
    </g>
</svg>