<?xml version="1.0" encoding="UTF-8"?>
<svg width="71px" height="34px" viewBox="0 0 71 34" version="1.1" xmlns="http://www.w3.org/2000/svg" xmlns:xlink="http://www.w3.org/1999/xlink">
    <!-- Generator: Sketch 56.3 (81716) - https://sketch.com -->
    <title>+10</title>
    <desc>Created with Sketch.</desc>
    <g id="Page-1" stroke="none" stroke-width="1" fill="none" fill-rule="evenodd">
        <path d="M23.46,14.582 L23.46,19.274 L14.214,19.274 L14.214,28.658 L9.246,28.658 L9.246,19.274 L0,19.274 L0,14.582 L9.246,14.582 L9.246,5.198 L14.214,5.198 L14.214,14.582 L23.46,14.582 Z M34.5,33.534 L34.5,5.658 L30.222,5.658 L30.222,0.874 L39.79,0.874 L39.79,33.534 L34.5,33.534 Z M53.176,1.288 C54.7706746,0.42932904 56.7026553,0 58.972,0 C61.2413447,0 63.1733254,0.42166245 64.768,1.265 C66.3626746,2.10833755 67.5969956,3.31199218 68.471,4.876 C69.3450044,6.44000782 69.9736648,8.18032375 70.357,10.097 C70.7403352,12.0136763 70.932,14.2139876 70.932,16.698 C70.932,19.1820124 70.7403352,21.3823238 70.357,23.299 C69.9736648,25.2156763 69.3450044,26.9636588 68.471,28.543 C67.5969956,30.1223412 66.3626746,31.3336625 64.768,32.177 C63.1733254,33.0203376 61.2413447,33.442 58.972,33.442 C56.7026553,33.442 54.7706746,33.0203376 53.176,32.177 C51.5813254,31.3336625 50.3470044,30.1223412 49.473,28.543 C48.5989956,26.9636588 47.9703353,25.2156763 47.587,23.299 C47.2036647,21.3823238 47.012,19.1820124 47.012,16.698 C47.012,14.2139876 47.2036647,12.0136763 47.587,10.097 C47.9703353,8.18032375 48.5989956,6.44000782 49.473,4.876 C50.3470044,3.31199218 51.5813254,2.11600414 53.176,1.288 Z M58.972,4.784 C57.4999926,4.784 56.2886714,5.09833019 55.338,5.727 C54.3873286,6.35566981 53.6973355,7.2833272 53.268,8.51 C52.5319963,10.6260106 52.164,13.3553166 52.164,16.698 C52.164,20.0713502 52.5319963,22.8159894 53.268,24.932 C54.126671,27.4160124 56.0279853,28.658 58.972,28.658 C61.9160147,28.658 63.817329,27.4160124 64.676,24.932 C65.4120037,22.8159894 65.78,20.0713502 65.78,16.698 C65.78,13.3553166 65.4120037,10.6260106 64.676,8.51 C63.817329,6.02598758 61.9160147,4.784 58.972,4.784 Z" id="+10" fill="#FFC108" fill-rule="nonzero"></path>
    </g>
</svg>