<?xml version="1.0" encoding="UTF-8"?>
<svg width="82px" height="34px" viewBox="0 0 82 34" version="1.1" xmlns="http://www.w3.org/2000/svg" xmlns:xlink="http://www.w3.org/1999/xlink">
    <!-- Generator: Sketch 56.3 (81716) - https://sketch.com -->
    <title>+25</title>
    <desc>Created with Sketch.</desc>
    <g id="Page-1" stroke="none" stroke-width="1" fill="none" fill-rule="evenodd">
        <path d="M23.46,14.766 L23.46,19.458 L14.214,19.458 L14.214,28.842 L9.246,28.842 L9.246,19.458 L0,19.458 L0,14.766 L9.246,14.766 L9.246,5.382 L14.214,5.382 L14.214,14.766 L23.46,14.766 Z M30.498,33.258 L30.498,29.44 C31.2646705,28.76533 32.3839926,27.7993396 33.856,26.542 C35.3280074,25.2846604 36.4549961,24.3110035 37.237,23.621 C38.0190039,22.9309966 38.9926608,22.0416721 40.158,20.953 C41.3233392,19.8643279 42.2279968,18.9290039 42.872,18.147 C43.5160032,17.3649961 44.17533,16.4833382 44.85,15.502 C46.1073396,13.7233244 46.736,11.9446756 46.736,10.166 C46.736,6.36331432 44.9266848,4.462 41.308,4.462 C39.4986576,4.462 38.0956717,5.03699425 37.099,6.187 C36.1023283,7.33700575 35.5733336,8.87799034 35.512,10.81 L30.452,10.81 C30.5440005,7.31398252 31.5943233,4.63834261 33.603,2.783 C35.6116767,0.92765739 38.2259839,0 41.446,0 C44.6660161,0 47.2189906,0.90465762 49.105,2.714 C50.9910094,4.52334238 51.934,6.91531846 51.934,9.89 C51.934,12.1286779 51.336006,14.2599899 50.14,16.284 C49.4959968,17.3266719 48.8826696,18.2543293 48.3,19.067 C47.7173304,19.8796707 46.9046719,20.8073281 45.862,21.85 C44.8193281,22.8926719 43.9913364,23.7053304 43.378,24.288 C42.7646636,24.8706696 41.8676726,25.6833281 40.687,26.726 C39.5063274,27.7686719 38.7013355,28.4893313 38.272,28.888 L52.854,28.888 L52.854,33.258 L30.498,33.258 Z M58.834,0.092 L79.074,0.092 L79.074,4.692 L63.664,4.692 L63.664,13.846 C64.3080032,12.987329 65.266327,12.2666696 66.539,11.684 C67.811673,11.1013304 69.2989915,10.81 71.001,10.81 C72.7030085,10.81 74.282326,11.14733 75.739,11.822 C77.195674,12.49667 78.3073295,13.4013277 79.074,14.536 C80.607341,16.744011 81.374,19.2279862 81.374,21.988 C81.374,25.4840175 80.3773433,28.3129892 78.384,30.475 C76.3906567,32.6370108 73.6230177,33.718 70.081,33.718 C66.5389823,33.718 63.7560101,32.8900083 61.732,31.234 C59.7079899,29.5779917 58.4966687,27.385347 58.098,24.656 L63.204,24.656 C63.541335,26.0973405 64.2926608,27.2396624 65.458,28.083 C66.6233392,28.9263375 68.1873235,29.348 70.15,29.348 C72.1126765,29.348 73.6383279,28.6886733 74.727,27.37 C75.8156721,26.0513267 76.36,24.2956776 76.36,22.103 C76.36,19.9103224 75.8080055,18.2236726 74.704,17.043 C73.5999945,15.8623274 71.9746774,15.272 69.828,15.272 C68.3253258,15.272 67.0603385,15.6476629 66.033,16.399 C65.0056615,17.1503371 64.2620023,18.1699936 63.802,19.458 L58.834,19.458 L58.834,0.092 Z" id="+25" fill="#FFC108" fill-rule="nonzero"></path>
    </g>
</svg>