<?xml version="1.0" encoding="UTF-8"?>
<svg width="180px" height="88px" viewBox="0 0 180 88" version="1.1" xmlns="http://www.w3.org/2000/svg" xmlns:xlink="http://www.w3.org/1999/xlink">
    <!-- Generator: Sketch 56.3 (81716) - https://sketch.com -->
    <title>Clouds</title>
    <desc>Created with Sketch.</desc>
    <defs>
        <linearGradient x1="93.3943664%" y1="61.9506173%" x2="18.3772829%" y2="38.0493827%" id="linearGradient-1">
            <stop stop-color="#BADCBB" offset="0%"></stop>
            <stop stop-color="#EBE5CA" offset="100%"></stop>
        </linearGradient>
    </defs>
    <g id="Page-1" stroke="none" stroke-width="1" fill="none" fill-rule="evenodd">
        <path d="M36.3280364,68.1290323 L50.5282771,68.1290323 C54.4487684,68.1290323 57.6269545,64.9516982 57.6269545,61.0322581 C57.6269545,57.1128179 54.4487684,53.9354839 50.5282771,53.9354839 L23.1330925,53.9354839 L9.93814846,53.9354839 C4.44946062,53.9354839 0,49.4872162 0,44 C0,38.5127838 4.44946062,34.0645161 9.93814846,34.0645161 L23.1330925,34.0645161 L59.04669,34.0645161 C62.9671814,34.0645161 66.1453675,30.8871821 66.1453675,26.9677419 C66.1453675,23.0483018 62.9671814,19.8709677 59.04669,19.8709677 L39.6340515,19.8709677 L42.9400664,19.8709677 C37.4513786,19.8709677 33.0019179,15.4227001 33.0019179,9.93548387 C33.0019179,4.44826765 37.4513786,0 42.9400664,0 L147.687153,0 C153.175841,0 157.625301,4.44826765 157.625301,9.93548387 C157.625301,15.4227001 153.175841,19.8709677 147.687153,19.8709677 L124.354523,19.8709677 L90.2779853,19.8709677 C86.357494,19.8709677 83.1793078,23.0483018 83.1793078,26.9677419 C83.1793078,30.8871821 86.357494,34.0645161 90.2779853,34.0645161 L123.644655,34.0645161 C129.133343,34.0645161 133.582803,38.5127838 133.582803,44 C133.582803,49.4872162 129.133343,53.9354839 123.644655,53.9354839 L123.999589,53.9354839 L107.314811,53.9354839 C103.39432,53.9354839 100.216134,57.1128179 100.216134,61.0322581 C100.216134,64.9516982 103.39432,68.1290323 107.314811,68.1290323 L147.208187,68.1290323 L170.061852,68.1290323 C175.550539,68.1290323 180,72.5772999 180,78.0645161 C180,83.5517324 175.550539,88 170.061852,88 L36.3280365,88 C30.8393487,88 26.3898881,83.5517324 26.3898881,78.0645161 C26.3898881,72.5772999 30.8393487,68.1290323 36.3280365,68.1290323 Z" id="Clouds" fill="url(#linearGradient-1)" fill-rule="nonzero"></path>
    </g>
</svg>