<?xml version="1.0" encoding="UTF-8"?>
<svg width="190px" height="50px" viewBox="0 0 190 50" version="1.1" xmlns="http://www.w3.org/2000/svg" xmlns:xlink="http://www.w3.org/1999/xlink">
    <!-- Generator: Sketch 56.3 (81716) - https://sketch.com -->
    <title>Clouds</title>
    <desc>Created with Sketch.</desc>
    <defs>
        <linearGradient x1="93.3943664%" y1="58.6805556%" x2="18.3772829%" y2="41.3194444%" id="linearGradient-1">
            <stop stop-color="#BADCBB" offset="0%"></stop>
            <stop stop-color="#EBE5CA" offset="100%"></stop>
        </linearGradient>
    </defs>
    <g id="Page-1" stroke="none" stroke-width="1" fill="none" fill-rule="evenodd">
        <path d="M19.2226935,31.5789474 L58.1783684,31.5789474 C61.8106178,31.5789474 64.7551377,28.6334523 64.7551377,25 C64.7551377,21.3665477 61.8106178,18.4210526 58.1783684,18.4210526 L29.5667484,18.4210526 L29.8955868,18.4210526 C24.8104377,18.4210526 20.6881098,14.2973595 20.6881098,9.21052632 C20.6881098,4.12369309 24.8104377,0 29.8955868,0 L110.792523,0 C115.877672,0 120,4.12369309 120,9.21052632 C120,14.2973595 115.877672,18.4210526 110.792523,18.4210526 L101.582372,18.4210526 C97.9501231,18.4210526 95.0056031,21.3665477 95.0056031,25 C95.0056031,28.6334523 97.9501231,31.5789474 101.582372,31.5789474 L183.136986,31.5789474 C186.769235,31.5789474 189.713755,28.6334523 189.713755,25 C189.713755,21.3665477 186.769235,18.4210526 183.136986,18.4210526 L110.792533,18.4210526 C114.424772,18.4210526 117.369292,21.3665477 117.369292,25 C117.369292,28.6334523 114.424772,31.5789474 110.792523,31.5789474 C115.877672,31.5789474 120,35.7026405 120,40.7894737 C120,45.8763069 115.877672,50 110.792523,50 L9.20747705,50 C4.12232789,50 0,45.8763069 0,40.7894737 C0,35.7026405 4.12232789,31.5789474 9.20747705,31.5789474 L19.2226935,31.5789474 Z" id="Clouds" fill="url(#linearGradient-1)" fill-rule="nonzero"></path>
    </g>
</svg>