<?xml version="1.0" encoding="UTF-8"?>
<svg width="188px" height="125px" viewBox="0 0 188 125" version="1.1" xmlns="http://www.w3.org/2000/svg" xmlns:xlink="http://www.w3.org/1999/xlink">
    <!-- Generator: Sketch 56.3 (81716) - https://sketch.com -->
    <title>crown</title>
    <desc>Created with Sketch.</desc>
    <defs>
        <path d="M171.513475,15.700072 C162.902225,15.700072 155.921208,22.6810895 155.921208,31.2923389 C155.924497,32.9269561 156.187614,34.55061 156.700693,36.1026375 L144.055342,44.1405101 C135.729502,49.4452503 124.752388,47.6871141 118.499694,40.0475721 L106.103939,24.8843327 C108.076589,22.2286737 109.142945,19.0087739 109.144407,15.7004374 C109.144407,7.08918804 102.16339,0.108170507 93.5521401,0.108170507 C84.9408907,0.108170507 77.9598732,7.08918804 77.9598732,15.7004374 C77.9613349,19.0087739 79.0276915,22.2286737 81.0003415,24.8843327 L68.6045861,40.0475721 C62.3529886,47.6827288 51.380991,49.4404995 43.0569781,44.1405101 L30.4046832,36.1026375 C30.9181277,34.55061 31.1812452,32.9269561 31.1841687,31.2923389 C31.1856305,22.6810895 24.2060747,15.6989757 15.5944598,15.6975139 C6.98357588,15.6960522 2.77111667e-13,22.6759734 2.77111667e-13,31.2872228 C2.77111667e-13,39.3707755 6.17522061,46.1149873 14.2277109,46.8221155 L23.4426686,102.096148 C23.7551206,103.975611 25.3806017,105.354785 27.2860106,105.354785 L159.819366,105.354785 C161.724775,105.354785 163.350256,103.975611 163.662708,102.096148 L172.877666,46.8221155 C181.454564,46.0528624 187.784,38.4761762 187.014747,29.8992782 C186.294828,21.8709071 179.574005,15.7150551 171.513475,15.700072 Z" id="path-1"></path>
    </defs>
    <g id="Page-1" stroke="none" stroke-width="1" fill="none" fill-rule="evenodd">
        <g id="crown">
            <g id="Group" transform="translate(-0.000000, 0.000000)">
                <mask id="mask-2" fill="white">
                    <use xlink:href="#path-1"></use>
                </mask>
                <use id="Path" fill="#FFC107" fill-rule="nonzero" xlink:href="#path-1"></use>
            </g>
            <ellipse id="Oval" fill="#FFA000" fill-rule="nonzero" cx="93.5528707" cy="101.456992" rx="66.266495" ry="19.4900596"></ellipse>
            <path d="M93.5528707,124.84521 C58.6810382,124.84521 23.3882177,116.815377 23.3882177,101.456992 C23.3882177,86.0986072 58.6810382,78.0687743 93.5528707,78.0687743 C128.424703,78.0687743 163.717524,86.0986072 163.717524,101.456992 C163.717524,116.815377 128.424703,124.84521 93.5528707,124.84521 Z M93.5528707,85.8647251 C52.6077758,85.8647251 31.1841684,95.9994976 31.1841684,101.456992 C31.1841684,106.914486 52.6077758,117.049259 93.5528707,117.049259 C134.497966,117.049259 155.921573,106.914486 155.921573,101.456992 C155.921573,95.9994976 134.497966,85.8647251 93.5528707,85.8647251 Z" id="Shape" fill="#FFD54F" fill-rule="nonzero"></path>
        </g>
    </g>
</svg>