<?xml version="1.0" encoding="UTF-8"?>
<svg width="439px" height="149px" viewBox="0 0 439 149" version="1.1" xmlns="http://www.w3.org/2000/svg" xmlns:xlink="http://www.w3.org/1999/xlink">
    <!-- Generator: Sketch 53.2 (72643) - https://sketchapp.com -->
    <title>truck</title>
    <desc>Created with Sketch.</desc>
    <defs>
        <linearGradient x1="76.5880762%" y1="32.6328865%" x2="-11.9428021%" y2="77.3218223%" id="linearGradient-1">
            <stop stop-color="#FFFFFF" offset="0%"></stop>
            <stop stop-color="#CCEDFA" offset="57.7806746%"></stop>
            <stop stop-color="#91DCF8" offset="100%"></stop>
        </linearGradient>
        <linearGradient x1="166.593008%" y1="49.5317459%" x2="-5.06431648%" y2="49.5317452%" id="linearGradient-2">
            <stop stop-color="#FFFFFF" offset="0%"></stop>
            <stop stop-color="#91DCF9" offset="100%"></stop>
        </linearGradient>
        <linearGradient x1="76.5880762%" y1="40.2322173%" x2="-11.9428021%" y2="65.3666079%" id="linearGradient-3">
            <stop stop-color="#FFFFFF" offset="0%"></stop>
            <stop stop-color="#CCEDFA" offset="57.7806746%"></stop>
            <stop stop-color="#91DCF8" offset="100%"></stop>
        </linearGradient>
    </defs>
    <g id="Splash-Page" stroke="none" stroke-width="1" fill="none" fill-rule="evenodd">
        <g id="truck">
            <path d="M412.101424,102.874212 C411.652553,98.2286549 410.088234,94.6832974 407.403574,92.3433858 C404.460843,89.7782945 400.308487,88.7906854 395.072481,89.3609777 C394.890243,86.6086445 394.288487,83.6617266 393.109438,80.7307182 C391.026533,75.5601501 386.398398,68.5844725 376.162442,64.7184785 C367.34159,61.3860626 348.924452,62.8472835 337.415269,76.5685639 L337.129068,76.9100049 L337.129068,132.190351 L438.063742,132.190351 L438.063742,111.260934 C438.063742,106.269041 431.998488,99.0180079 422.493934,99.0180079 C418.474893,99.0180079 415.000123,100.312792 412.101424,102.874212 Z" id="Fill-1" fill="url(#linearGradient-1)"></path>
            <ellipse id="Oval-7" fill="#FFFFFF" cx="409.497325" cy="78.1277053" rx="3.80885561" ry="3.81110758"></ellipse>
            <ellipse id="Oval-7" fill="#FFFFFF" cx="407.592897" cy="64.7888288" rx="1.9044278" ry="1.90555379"></ellipse>
            <g id="Plow-Attachment" transform="translate(343.860482, 89.622776) scale(-1, 1) translate(-343.860482, -89.622776) translate(312.503339, 38.356954)">
                <polygon id="Rectangle-16" fill="#5676AA" points="38.0885561 53.3555061 46.8830599 53.3555061 46.8830599 68.5999364 38.0885561 68.5999364"></polygon>
                <polygon id="Rectangle-18" fill="#334F7C" points="45.7062673 59.0721675 56.0997718 59.0721675 56.0997718 62.883275 45.7062673 62.883275"></polygon>
                <polygon id="Rectangle-17" fill="#334F7C" points="39.9929839 24.7721993 62.0645834 24.7721993 62.0645834 30.4888606 39.9929839 30.4888606"></polygon>
                <polygon id="Rectangle-15" fill="#5676AA" points="28.566417 20.9610917 41.3584227 20.9610917 41.3584227 34.2999682 34.9624199 34.2999682"></polygon>
                <path d="M1.35446704,8.97417959 C23.609783,22.4029636 34.3972534,36.9735947 34.3972534,52.696156 L34.3972534,90.8622855 L43.1917573,90.8622855 L43.1917573,52.696156 C43.1917573,33.3672102 30.5272174,16.2612223 5.8785127,1.38827548 L1.35446704,8.97417959 Z" id="Path-5" fill="#1F3861" fill-rule="nonzero"></path>
                <polygon id="Rectangle-14" fill="#5676AA" points="33.5790147 89.428301 43.9725193 89.428301 43.9725193 100.687003 33.5790147 100.687003"></polygon>
            </g>
            <path d="M98.4006292,148.180301 C98.4006292,141.192635 65.3458348,142.159959 65.3458348,142.159959 C65.9800092,133.388695 40.5882734,140.768905 40.5882734,140.768905 C43.7610501,129.970132 -0.516169162,148.180301 0.0045579367,148.180301 L98.4006292,148.180301 Z" id="Fill-1" fill="url(#linearGradient-2)" transform="translate(49.200315, 142.763582) scale(-1, 1) translate(-49.200315, -142.763582) "></path>
            <path d="M262.226768,148.033311 C262.226768,141.045645 229.171973,142.012969 229.171973,142.012969 C229.806148,133.241705 204.414412,140.621915 204.414412,140.621915 C207.587188,129.823142 163.309969,148.033311 163.830696,148.033311 L262.226768,148.033311 Z" id="Fill-1" fill="url(#linearGradient-2)" transform="translate(213.026453, 142.616592) scale(-1, 1) translate(-213.026453, -142.616592) "></path>
            <g id="Truck" transform="translate(36.229476, 0.000000)" fill-rule="nonzero">
                <polygon id="Shape" fill="#49C474" points="155.204239 48.3823918 136.223561 111.408012 117.242882 111.408012 104.589477 79.8949159 117.242882 48.3823918"></polygon>
                <path d="M62.7743753,64.5771218 C36.958915,64.5771218 15.9556348,85.5852807 15.9556348,111.408012 L109.592544,111.408012 C109.592544,85.5852807 88.5898357,64.5771218 62.7743753,64.5771218 Z" id="Shape" fill="#C2F8D5"></path>
                <polygon id="Shape" fill="#DAF5E4" points="211.837084 5.14613856 189.786783 5.14613856 182.49193 30.7196232 208.489133 61.0396517 227.46924 48.3823918"></polygon>
                <polygon id="Shape" fill="#FFFFFF" points="154.51156 5.14613856 142.848024 61.0396517 208.489133 48.3823918 192.856405 5.14613856"></polygon>
                <path d="M155.501429,9.89211083 L155.501429,48.3823918 L227.46924,48.3823918 L255.946259,56.9259422 C263.064513,59.0651169 268.891709,69.4877339 268.891709,80.0944274 L268.891709,111.408012 L136.223561,111.408012 L136.223561,19.6824651 C136.223561,9.07577159 144.897487,0.39959463 155.501429,0.39959463 L210.121387,0.39959463 C212.741797,0.39959463 214.866128,2.52504933 214.8667,5.1455669 C214.8667,7.7672278 212.741797,9.89211083 210.121387,9.89211083 L155.501429,9.89211083 Z" id="Combined-Shape" fill="#93E9B1"></path>
                <path d="M268.992868,56.9259422 L227.469811,48.3823918 L249.871064,111.408012 L287.872388,111.408012 L287.872388,80.0944274 C287.871816,69.4877339 279.37506,59.0651169 268.992868,56.9259422 Z" id="Shape" fill="#68DD91"></path>
                <path d="M168.155976,72.1168265 L155.502,72.1168265 C152.881591,72.1168265 150.756688,69.9919434 150.756688,67.3702825 C150.756688,64.7491933 152.881019,62.6237386 155.502,62.6237386 L168.155976,62.6237386 C170.776386,62.6237386 172.901289,64.7486216 172.901289,67.3702825 C172.900717,69.9919434 170.776386,72.1168265 168.155976,72.1168265 Z" id="Shape" fill="#1F3861"></path>
                <path d="M0,48.3823918 L0,111.408012 L13.8175866,111.408012 C16.974651,87.2013808 37.7270349,68.4501599 62.7749468,68.4501599 C87.8228587,68.4501599 108.575243,87.2013808 111.72602,111.408012 L117.242882,111.408012 L117.242882,48.3823918 L0,48.3823918 L0,48.3823918 Z" id="Shape" fill="#68DD91"></path>
                <g id="Tire" transform="translate(32.375273, 85.749921)">
                    <path d="M30.3996742,1.68584344 L30.3996742,62.4836804 C47.1845813,62.4836804 60.7878487,48.8711664 60.7878487,32.0813319 C60.7878487,15.2920692 47.1851528,1.68584344 30.3996742,1.68584344 Z" id="Shape" fill="#1F3861"></path>
                    <path d="M30.3996742,1.68584344 C40.1937752,1.68584344 51.4741821,15.2920692 51.4741821,32.0819036 C51.4741821,48.8711664 40.1937752,62.4842521 30.3996742,62.4842521 C13.6147671,62.4842521 0.00521299915,48.871738 0.00521299915,32.0819036 C0.00578451698,15.2920692 13.6147671,1.68584344 30.3996742,1.68584344 Z" id="Shape" fill="#324E7C"></path>
                    <path d="M30.3991027,43.496933 C24.1072629,43.496933 18.9887492,38.3770911 18.9887492,32.0836186 C18.9887492,25.7901461 24.1072629,20.6697325 30.3991027,20.6697325 C36.6909425,20.6697325 41.8094561,25.7901461 41.8094561,32.0836186 C41.8094561,38.3770911 36.691514,43.496933 30.3991027,43.496933 Z" id="Shape" fill="#5676AA"></path>
                </g>
                <path d="M112.146086,122.579511 C109.525677,122.579511 107.400773,120.454628 107.400773,117.832967 C107.400773,93.2187386 87.3810755,73.1944171 62.7743753,73.1944171 C38.1676752,73.1944171 18.1479771,93.2193102 18.1479771,117.832967 C18.1479771,120.454057 16.0236454,122.579511 13.4026646,122.579511 C10.7816838,122.579511 8.65735208,120.454628 8.65735208,117.832967 C8.65735208,87.9845634 32.9342864,63.7013293 62.7743753,63.7013293 C92.6144642,63.7013293 116.891399,87.9845634 116.891399,117.832967 C116.891399,120.454628 114.766495,122.579511 112.146086,122.579511 Z" id="Shape" fill="#93E9B1"></path>
                <g id="Tire" transform="translate(194.251636, 85.749921)">
                    <path d="M30.8463763,1.68584344 L30.8463763,62.4836804 C47.6312834,62.4836804 61.2345508,48.8711664 61.2345508,32.0813319 C61.2345508,15.2920692 47.6324265,1.68584344 30.8463763,1.68584344 Z" id="Shape" fill="#1F3861"></path>
                    <path d="M30.8463763,1.68584344 C40.6404773,1.68584344 52.4322078,15.5610816 52.4322078,32.3509161 C52.4322078,49.1401788 40.6404773,62.4842521 30.8463763,62.4842521 C14.0614692,62.4842521 0.451915117,48.871738 0.451915117,32.0819036 C0.452486635,15.2920692 14.0620407,1.68584344 30.8463763,1.68584344 Z" id="Shape" fill="#334F7C"></path>
                    <path d="M30.8458048,43.496933 C24.553965,43.496933 19.4354513,38.3770911 19.4354513,32.0836186 C19.4354513,25.7901461 24.553965,20.6697325 30.8458048,20.6697325 C37.1376446,20.6697325 42.2561582,25.7901461 42.2561582,32.0836186 C42.2561582,38.3770911 37.1382161,43.496933 30.8458048,43.496933 Z" id="Shape" fill="#5676AA"></path>
                </g>
            </g>
        </g>
    </g>
</svg>